<mxfile host="Electron" modified="2024-09-10T11:12:42.271Z" agent="Mozilla/5.0 (X11; Linux x86_64) AppleWebKit/537.36 (KHTML, like Gecko) draw.io/24.6.4 Chrome/124.0.6367.207 Electron/30.0.6 Safari/537.36" etag="0IjzN-MLcYbBa46MqOY6" version="24.6.4" type="device">
  <diagram name="Page-1" id="30eDFWtLZ-vzRjGJo76e">
    <mxGraphModel dx="1114" dy="1027" grid="1" gridSize="10" guides="1" tooltips="1" connect="1" arrows="1" fold="1" page="1" pageScale="1" pageWidth="850" pageHeight="1100" math="0" shadow="0">
      <root>
        <mxCell id="0" />
        <mxCell id="1" parent="0" />
        <mxCell id="yYybROheOo7XdbPep2oi-2" value="" style="html=1;shadow=0;dashed=0;align=center;verticalAlign=middle;shape=mxgraph.arrows2.jumpInArrow;dy=15;dx=38;arrowHead=55;rotation=50;" vertex="1" parent="1">
          <mxGeometry x="440" y="30" width="100" height="100" as="geometry" />
        </mxCell>
        <mxCell id="yYybROheOo7XdbPep2oi-5" value="" style="html=1;shadow=0;dashed=0;align=center;verticalAlign=middle;shape=mxgraph.arrows2.jumpInArrow;dy=15;dx=38;arrowHead=55;rotation=-170;" vertex="1" parent="1">
          <mxGeometry x="440" y="260" width="100" height="100" as="geometry" />
        </mxCell>
        <mxCell id="yYybROheOo7XdbPep2oi-12" value="" style="shape=image;aspect=fixed;image=data:image/png,iVBORw0KGgoAAAANSUhEUgAAATkAAAAuCAYAAABTRW5mAAAACXBIWXMAAA7EAAAOxAGVKw4bAAANe0lEQVR4Xu3de1BU593A8e/ZG8sCy0WwKAgiCAUJiCYvkWkTMTGdTMaZxBbHtDWOodUYJzaxVKYz7RhT28lExjQZE28lZEytpraxqW2TmLGjvpoRr/GCXES5KSIKu9zZZdnz/rHvHuEsl8UoyOb5/AP8nuecs+cgv/09z3POKsmyLCMIguCjNOqAIAiCLxFJThAEn6ZTB4ZScLqA0uZS7LIdxCBXEITRJIFBMpAclkze7Dx166Akb+bkSppK2HRmEzanDQlJ3SwIgjBqZGT8NH6smbWGGRNmqJs9eJXkcr/Mxe60q8OCIAhjxqAxUDi/UB32MOycXMHpAmxOmzosCIIwpmxOGwWnC9RhD8MmudLmUjFEFQThgSMhUdpcqg57GDbJ2WUxTBUE4cHkTX4aNsmJVVRBEB5YXuSn4ZOcIAjCOCaSnCAIPk0kOUEQfNqYJbmMiAx2PLmDjIgMdZMgCMI9M2ZJbqp5Kkatkanmqeom4Vsg2BCsDo0Kg9aAv85fHRZ82JglOeHba96UeeRMz1GHR0VCcAKrZ65GK2nVTYKPGrdJbkHcAormF7HtiW1se2Ibm+duZnHi4m/0j3ckNz3rNXq2zNuiDisWxC1gYcJCdXjMPCivJz44nuzobHaW7ewXnxs9l1Vpq/rFRuL5pOdZmrxUHfZwqfkSldZKFiUuUjcJPmrcJjmAA7UHWHFwBSsOriD/WD6x5lienvq0upvX3st+Tx0S7iFJkliaspQ/l/0Ze6/rJs6k0CT8df5YbBZa7C1oJA1p4WmqLYd3sO4gX9R8oQ4P6NOrnzJr4iyiAqPUTYIPGtdJrq+Ong72Ve5j9sTZ6iavGbQGdUi4h1LCUujs6aTcUq7Evjf5e2zI2sD8KfNJCEngD1l/YMG0BQTqA/tsObzGzkYaOhvU4QE5nA7+XfVvno69+zdEYfwY0efJfRMZERm8nPYyey/v5UDtAXUzT8U8Rc70HN4//z5nb51VN3ul09FJgD4AgEB9ID9P/TlTzVORkSluKGZP+R5kZNLC00gISSApNIkI/wj+efWfLIxfiEFr4N3H3wVg9eHVAGRGZvKjhB9h0Bqw2qwUXSqiurUaAI2kYVnKMpLDktFIGj6p/ISvbnzFQLImZfFcwnMYNAba7G18WPohldZKdTfltUWaIjHpTeg1enaX71aOOSVoCrkzcgn1C8XutLOvcp9yzKHOWe2ZuGfIiMjgzVNv4nA6WDR9EVmTswCoaa1hx8UdtPe0A/BY1GM8G/8sEhK1bbWUW8qpsFZQaa1kqnkqy1KWEeIXgsPpYH/Vfg5dO9TnSHdkRmZS3FDcL1ZYUohW0pL/cD56jZ6NpzfS1N3Ur4/b8oeWkxqWqvwc7BdMYUkhR64fYUHcAvRaPZ9UfjLsNQQ4dfMUOdNz0F7S0iv3KnHB94xakpMkCaPOyJLkJR5/dPNj5rMkeYnS726Z9CY6ejoAyJmew5WWK7x99m20kpbVM1czZ9IcJSFkR2fzm69+Q4u9BYBD1w7xpyf/pCQ3cCWNHyf9mHXH12G1WYkJimFV+iryj+YDYNKZOFZ/jKJLRQQZgnj90depsFZwu+u2sg+AMGMYzyU8x/rj62nvaSfWHMurM1/ltSOv9evnNidyDr/+6tc4nA7C/cNZO3sta4+uBWB56nL2VOyhpKkEk87EukfXKccc7pzd0sLTyI7OZn3xehxOBxkRGUwLnkbe/+bhcDp4MuZJFiUu4oOSDwj3D+fZ+GdZd3wdbfY2Jhgn8Ls5v2PT2U0ArExbydbzW6lqrSJAH8Drj75OmaWMhg7PqioxJJH9V/erwyybsYyq1iou3r7IL2f9kg0nNtDp6FR3Y/uF7cr3ceY4clNzOVp/tE+PO4a6hgDtPe3c6rpFVGAUtW21fbYUfM2oDVfPNJ5hV9kuAF5IfoHMyEzA9e7+QvILAOwq28WZxjPKNiMRZAhiYfxCTjWeAiAmKEapCHvlXs7fPk9ccJzSv9JaqSS4wdiddt75+h2sNisAtW21BOgDMOqMgOsPpcJaAUCbvY2qlipigmKU7d2iAqKoa6tTKqOa1hr0Wj0mnUnV06WuvQ6H0wHA7a7bmPQm5baHv5T/hZKmEsBVuda21TIlcArgec7/vfZfnDjpKzIgkhdnvMjbZ9+mzd4GQHVrNR+Wfqgc81LTJeLMrmsVaYqkprVG6dvU3URdex1O2YlOoyNIH0RVaxXgmjKobq1mcsBkBhLiF0Jzd3O/mEbScLPjJvsq93Gh6QJH64+i1Qy9eOSe29tZuhOn3P/83Ia6hm6WbguhxtB+McH3jFolB/B5zecA/OS7P1Emfd1fd5XtUtq99VTMU8yNngtAl6OLo9eP8ln1Z4DrD6Hv54HKyP1WT9XV5EDsvXZ0ko41s9agk1yXKkAXgAYNvXgOcdTHcJMkicTQRNbOvlNJdPZ0eiSgobj329DZwMq0lQTpgwBXYjt+47irj+qcz906p3wP4K/z59WZr1JUUsT19utK3GKzMDdiLku+uwQJCT+tHxrJ9f53rf0aseZYQv1CsdgsTPSfyET/idR31CMhYdKb+p2X2c+Mrdfz8wclSUIjaTyGhk7Zyf6qO9Xdf6r/06d1YNnR2dR31FNhcb3BeEv9u2nvaR/x3J8w/oxqkoP+ic7tbhIcuFZXd5fvVofvmQB9ALmpuWw4sUGpZDZnb1b18k6FpYJ3v3bN930TL6e9zN6KvUoFuSr97m+7cEsJS+GR7zzCpjOb6JV7mRwwWdmv1WblastV3vr+W7Tb22nraWPHxR10O7rRa/R0Obp46/Rbqj16kmUZh9OBXqOnx9mjbvZaoD6QZ+KeYf3x9eqmETMbzLTaWtVhwcfc1ySn0+h46aGXmD1xNjqN61Ddvd1sPLWRj8o+Iichh72X93K19Srbn9iuDCccTgenG0+z9cJWZcgxUrIs95vfk5CGrd7U7VMCp9DQ0aAkOADN/4/w1X1h8GPIsmeFt3b2Wjad3TTg+an7uvcrSRLRgdFKgoM7rwc8zzk9Ih1/rT/HG1yVXpeji3e+fof8h/PZeHqjUs0lhSZx4fYFpcrquw+jzshE00ReOviSRxU2UOW6OHExJ2+e5ErLlX5xgGZbMxH+EdR31KubvLY4cTGfV39Oq33o5KR+XQP9biL8I2i29R8+C77nvs7JZU3KIjMyU0lwAEatkV89/CusNiuvHHqFFnsL+Q/nKwmuvaed7t5uMiMzyZrkWu27G3XtdcyMmAmAVtKSFp7Wb3VtINZuK7FBscrPNzpvEGuOJdjP9QhSUmgSQQbXMNHhdNBqb2V6yHTANScYFxxHXVudsr1bfUc904Kn9dvPBP8JAyY4gPiQeMwGMwAJIQl0O7rpcnQhyzKWbgspYSmA69Go6aGu44PnOc+Lnucxv3Wj4wZFJUW8lvGaci517XWkR6Qrv6dHvvPInQ1k6HX2Djj35XA6aLO3kRyWDLheT2ZkJhabRdXTpaSphPSIdHV4SFGBUcrcZXxwPDHmGA7WHVT18jTYNXQLM4YRoA+gvv3uE64wPtzXSm6CcYI6BLgS3Svpr6jDAOws3YmExMq0lYNu7429l/eyInUF8x+fj4zMyZsnPVYZ1QpLClmVvgqj1sjqw6tpsbXwccXH/PZ/fotTdlJmKePL2i+V/lvPbyU3NRez3kyP3MM/Kv/Bra5bffbo0tTdxN8u/411mevQSTqsdivvn3tf3U3R1NXE8oeWMzlgMp2OTt47f+cm5W0XtpGbmkugPpD6jno+vfKp0ubtOZ+7fY7oa9H8YuYvePPUm5y6eYqE4AQKvl9AZ08nh68f5mrLVcBVeVe3VrNl3hZ6nD00djby98q/c6n5EgBbLmzhxRkvYtabsTvt/PXyXz0WF9xONJxgacpSZd7UG3mz8thdvpsTN0/wfNLzRJoi+eNjf1Ta/1X9Lw7UeN6SNNQ1BJgzaQ4nbp7wqO4E3zPs/9a15AvXrR134/Gox/lZ6s/U4SG5VyAD9YHsuLiDI9ePqHr4trTwNOZGz70n83f3yhtz3mBP+R5KLaVMMk1i7cOu2zHcTy2MRN6sPA5fP8zJmyfVTffMcNfQpDPx+6zf80bxG4NWncL48dEPPlKH+rmvw9VjN45R3FA86LBsIIH6QIxaI8UNxQNWIcLoM+lMWG1WZFlW5sLcq68jtbNsJz9M+KEylBwLP03+KZ/VfCYS3LfEfR2uOpwONp+7u9VI4cHxQckHrEpfRYA+AHuvnY8rPqbb0a3u5pXGzkZ2le1iceJitl+8c3PvaEkPT6fX2TvgEFfwTfd1uCoIg9FKY/M4lYSEJEkDLqQI49Nww9X7WskJwmDGIsGB67aXYd7XBR9zdxMrgiAI44RIcoIg+DSR5ARB8GnDJznP580FQRAeDF7kp2GTnEESn5YrCMKDyZv8NGySSw5LFo++CILwwJGRleemhzLsfXIAuV/mYneO/BEeQRCE+8WgMVA4v1Ad9jBsJQewZtYaDBqDqOgEQRhzMjIGjYE1s9aomwbkVSXnVnC6gNLmUuyyHZHvBEEYVZJrDi45LJm82Xnq1kGNKMkJgiCMN14NVwVBEMYrkeQEQfBpIskJguDTRJITBMGn/R/76DlseE0X/AAAAABJRU5ErkJggg==;" vertex="1" parent="1">
          <mxGeometry x="90" y="50" width="313" height="46" as="geometry" />
        </mxCell>
        <mxCell id="yYybROheOo7XdbPep2oi-13" value="JIPipe-4.0.0-Prepackaged-Win64.zip" style="shape=image;aspect=fixed;image=data:image/svg+xml,PHN2ZyB3aWR0aD0iNjQiIGhlaWdodD0iNjQiIHZlcnNpb249IjEuMSIgdmlld0JveD0iMCAwIDY0IDY0IiB4bWxucz0iaHR0cDovL3d3dy53My5vcmcvMjAwMC9zdmciPgogPGRlZnM+CiAgPGZpbHRlciBpZD0iYSIgeD0iLS4wMzkwMDEiIHk9Ii0uMDMzNDI4IiB3aWR0aD0iMS4wNzgiIGhlaWdodD0iMS4wNjY5IiBjb2xvci1pbnRlcnBvbGF0aW9uLWZpbHRlcnM9InNSR0IiPgogICA8ZmVHYXVzc2lhbkJsdXIgc3RkRGV2aWF0aW9uPSIwLjIwNjM3NTI1Ii8+CiAgPC9maWx0ZXI+CiA8L2RlZnM+CiA8cGF0aCB0cmFuc2Zvcm09InNjYWxlKDMuNzc5NikiIGQ9Im0zLjQzOTUgMS4zNTQzYy0wLjczMjg5IDAtMS4zMjI5IDAuNTkwMDEtMS4zMjI5IDEuMzIyOXYxMi4xNzFjMCAwLjczMjg5IDAuNTkwMDEgMS4zMjI5IDEuMzIyOSAxLjMyMjloMTAuMDU0YzAuNzMyODkgMCAxLjMyMjktMC41OTAwMSAxLjMyMjktMS4zMjI5di0xMC4zMTlsLTMuMTc1LTMuMTc1eiIgZmlsbC1ydWxlPSJldmVub2RkIiBmaWx0ZXI9InVybCgjYSkiIG9wYWNpdHk9Ii4xNSIgc3Ryb2tlLXdpZHRoPSIuMjY0NTgiIHN0eWxlPSJwYWludC1vcmRlcjpzdHJva2UgZmlsbCBtYXJrZXJzIi8+CiA8ZyB0cmFuc2Zvcm09InNjYWxlKDMuNzc5NikiIGZpbGwtcnVsZT0iZXZlbm9kZCI+CiAgPHBhdGggdHJhbnNmb3JtPSJzY2FsZSguMjY0NTgpIiBkPSJtMTMgNGMtMi43NyAwLTUgMi4yMy01IDV2NDZjMCAyLjc3IDIuMjMgNSA1IDVoMzhjMi43NyAwIDUtMi4yMyA1LTV2LTM5bC0xMi0xMnoiIGZpbGw9IiNmZWMyMWEiIHN0eWxlPSJwYWludC1vcmRlcjpzdHJva2UgZmlsbCBtYXJrZXJzIi8+CiAgPHBhdGggZD0ibTE0LjgxNiA0LjIzMzItMy4xNzQ5LTMuMTc0OXYxLjg1MmMwIDAuNzMyODggMC41OTAwMSAxLjMyMjkgMS4zMjI5IDEuMzIyOXoiIGZpbGw9IiNmZmYiIG9wYWNpdHk9Ii4zNSIgc3R5bGU9InBhaW50LW9yZGVyOnN0cm9rZSBmaWxsIG1hcmtlcnMiLz4KIDwvZz4KIDxnIHRyYW5zZm9ybT0ibWF0cml4KDMuNzc5NiAwIDAgMy43Nzk2IC0xMDEuMDQgNC40MjQpIiBmaWxsPSIjZmZmIiBvcGFjaXR5PSIuNzUiPgogIDxwYXRoIGQ9Im0zNC42NzEgNy4wMzE1djEuNzE5OGMwIDAuMDczMjkgMC4wNTkgMC4xMzIyOSAwLjEzMjI5IDAuMTMyMjloMC43OTM3NGMwLjA3MzI5IDAgMC4xMzIyOS0wLjA1OSAwLjEzMjI5LTAuMTMyMjl2LTEuNzE5OHptMC4yNjQ1OCAxLjA1ODNoMC41MjkxNnYwLjUyOTE2aC0wLjUyOTE2eiIgY29sb3I9IiMwMDAwMDAiLz4KICA8cGF0aCBkPSJtMzUuMi0wLjExMjE1djAuNTI5MTZoMC41MjkxNnYtMC41MjkxNnptMCAwLjUyOTE2aC0wLjUyOTE2djAuNTI5MTZoMC41MjkxNnptMCAwLjUyOTE2djAuNTI5MTZoMC41MjkxNnYtMC41MjkxNnptMCAwLjUyOTE2aC0wLjUyOTE2djAuNTI5MTZoMC41MjkxNnptMCAwLjUyOTE2djAuNTI5MTZoMC41MjkxNnYtMC41MjkxNnptMCAwLjUyOTE2aC0wLjUyOTE2djAuNTI5MTZoMC41MjkxNnptMCAwLjUyOTE2djAuNTI5MTZoMC41MjkxNnYtMC41MjkxNnptMCAwLjUyOTE2aC0wLjUyOTE2djAuNTI5MTZoMC41MjkxNnptMCAwLjUyOTE2djAuNTI5MTZoMC41MjkxNnYtMC41MjkxNnptMCAwLjUyOTE2aC0wLjUyOTE2djAuNTI5MTZoMC41MjkxNnptMCAwLjUyOTE2djAuNTI5MTZoMC41MjkxNnYtMC41MjkxNnptMCAwLjUyOTE2aC0wLjUyOTE2djAuNTI5MTZoMC41MjkxNnptMCAwLjUyOTE2djAuNTI5MTZoMC41MjkxNnYtMC41MjkxNnoiIGNvbG9yPSIjMDAwMDAwIi8+CiA8L2c+CiA8cGF0aCBkPSJtNDMuOTk4IDExdjAuNTgzOTljMCAzLjAwMDkgMi4yMyA1LjQxNjIgNSA1LjQxNjJoNi45OTk4bDUuMzdlLTQgLTEuMDAwMi03LjAwMDYgMS44OWUtNGMtMi43NyA3LjVlLTUgLTUtMi4yMy01LTV6IiBmaWxsLXJ1bGU9ImV2ZW5vZGQiIG9wYWNpdHk9Ii4xIiBzdHJva2Utd2lkdGg9IjMuOTMzOCIgc3R5bGU9InBhaW50LW9yZGVyOnN0cm9rZSBmaWxsIG1hcmtlcnMiLz4KPC9zdmc+Cg==;labelPosition=center;verticalLabelPosition=bottom;align=center;verticalAlign=top;fontSize=15;" vertex="1" parent="1">
          <mxGeometry x="560" y="110" width="128" height="128" as="geometry" />
        </mxCell>
        <mxCell id="yYybROheOo7XdbPep2oi-10" value="" style="shape=image;aspect=fixed;image=data:image/svg+xml,PHN2ZyB4bWxucz0iaHR0cDovL3d3dy53My5vcmcvMjAwMC9zdmciIHZpZXdCb3g9IjAgMCAzMjAgNTEyIj48IS0tISBGb250IEF3ZXNvbWUgRnJlZSA2LjUuMSBieSBAZm9udGF3ZXNvbWUgLSBodHRwczovL2ZvbnRhd2Vzb21lLmNvbSBMaWNlbnNlIC0gaHR0cHM6Ly9mb250YXdlc29tZS5jb20vbGljZW5zZS9mcmVlIChJY29uczogQ0MgQlkgNC4wLCBGb250czogU0lMIE9GTCAxLjEsIENvZGU6IE1JVCBMaWNlbnNlKSBDb3B5cmlnaHQgMjAyMyBGb250aWNvbnMsIEluYy4gLS0+PHBhdGggZD0iTTAgNTUuMlY0MjZjMCAxMi4yIDkuOSAyMiAyMiAyMmM2LjMgMCAxMi40LTIuNyAxNi42LTcuNUwxMjEuMiAzNDZsNTguMSAxMTYuM2M3LjkgMTUuOCAyNy4xIDIyLjIgNDIuOSAxNC4zczIyLjItMjcuMSAxNC4zLTQyLjlMMTc5LjggMzIwSDI5Ny45YzEyLjIgMCAyMi4xLTkuOSAyMi4xLTIyLjFjMC02LjMtMi43LTEyLjMtNy40LTE2LjVMMzguNiAzNy45QzM0LjMgMzQuMSAyOC45IDMyIDIzLjIgMzJDMTAuNCAzMiAwIDQyLjQgMCA1NS4yeiIvPjwvc3ZnPg==;imageBackground=none;" vertex="1" parent="1">
          <mxGeometry x="650" y="180" width="94" height="150" as="geometry" />
        </mxCell>
        <mxCell id="yYybROheOo7XdbPep2oi-14" value="" style="perimeter=none;dashed=0;shape=rect;fillColor=#ffffff;strokeColor=#eeeeee;shadow=1;" vertex="1" parent="1">
          <mxGeometry x="730" y="320" width="170" height="130" as="geometry" />
        </mxCell>
        <mxCell id="yYybROheOo7XdbPep2oi-15" value="..." style="text;verticalAlign=middle;fontSize=15;spacing=16;resizeWidth=1;whiteSpace=wrap;html=1;" vertex="1" parent="yYybROheOo7XdbPep2oi-14">
          <mxGeometry width="170" height="42" relative="1" as="geometry">
            <mxPoint as="offset" />
          </mxGeometry>
        </mxCell>
        <mxCell id="yYybROheOo7XdbPep2oi-16" value="Extract" style="text;verticalAlign=middle;fontSize=15;spacing=16;resizeWidth=1;whiteSpace=wrap;html=1;" vertex="1" parent="yYybROheOo7XdbPep2oi-14">
          <mxGeometry width="170" height="42" relative="1" as="geometry">
            <mxPoint y="42" as="offset" />
          </mxGeometry>
        </mxCell>
        <mxCell id="yYybROheOo7XdbPep2oi-17" value="..." style="text;verticalAlign=middle;fontSize=15;spacing=16;resizeWidth=1;whiteSpace=wrap;html=1;" vertex="1" parent="yYybROheOo7XdbPep2oi-14">
          <mxGeometry width="170" height="42" relative="1" as="geometry">
            <mxPoint y="84" as="offset" />
          </mxGeometry>
        </mxCell>
        <mxCell id="yYybROheOo7XdbPep2oi-19" value="jipipe.sh" style="shape=image;aspect=fixed;image=data:image/svg+xml,PHN2ZyB3aWR0aD0iNjQiIGhlaWdodD0iNjQiIHZlcnNpb249IjEuMSIgdmlld0JveD0iMCAwIDE2LjkzMyAxNi45MzMiIHhtbG5zPSJodHRwOi8vd3d3LnczLm9yZy8yMDAwL3N2ZyI+CiA8ZGVmcz4KICA8ZmlsdGVyIGlkPSJhIiB4PSItLjAzOTAwMSIgeT0iLS4wMzM0MjgiIHdpZHRoPSIxLjA3OCIgaGVpZ2h0PSIxLjA2NjkiIGNvbG9yLWludGVycG9sYXRpb24tZmlsdGVycz0ic1JHQiI+CiAgIDxmZUdhdXNzaWFuQmx1ciBzdGREZXZpYXRpb249IjAuMjA2Mzc1MjUiLz4KICA8L2ZpbHRlcj4KIDwvZGVmcz4KIDxwYXRoIGQ9Im0zLjQzOTUgMS4zNTQzYy0wLjczMjg5IDAtMS4zMjI5IDAuNTkwMDEtMS4zMjI5IDEuMzIyOXYxMi4xNzFjMCAwLjczMjg5IDAuNTkwMDEgMS4zMjI5IDEuMzIyOSAxLjMyMjloMTAuMDU0YzAuNzMyODkgMCAxLjMyMjktMC41OTAwMSAxLjMyMjktMS4zMjI5di0xMC4zMTlsLTMuMTc1LTMuMTc1eiIgZmlsbC1ydWxlPSJldmVub2RkIiBmaWx0ZXI9InVybCgjYSkiIG9wYWNpdHk9Ii4xNSIgc3Ryb2tlLXdpZHRoPSIuMjY0NTgiIHN0eWxlPSJwYWludC1vcmRlcjpzdHJva2UgZmlsbCBtYXJrZXJzIi8+CiA8ZyBmaWxsLXJ1bGU9ImV2ZW5vZGQiPgogIDxwYXRoIHRyYW5zZm9ybT0ic2NhbGUoLjI2NDU4KSIgZD0ibTEzIDRjLTIuNzcgMC01IDIuMjMtNSA1djQ2YzAgMi43NyAyLjIzIDUgNSA1aDM4YzIuNzcgMCA1LTIuMjMgNS01di0zOWwtMTItMTJ6IiBmaWxsPSIjZjRmNGY0IiBzdHlsZT0icGFpbnQtb3JkZXI6c3Ryb2tlIGZpbGwgbWFya2VycyIvPgogIDxwYXRoIGQ9Im0xNC44MTYgNC4yMzMyLTMuMTc0OS0zLjE3NDl2MS44NTJjMCAwLjczMjg4IDAuNTkwMDEgMS4zMjI5IDEuMzIyOSAxLjMyMjl6IiBmaWxsPSIjYmJiIiBzdHlsZT0icGFpbnQtb3JkZXI6c3Ryb2tlIGZpbGwgbWFya2VycyIvPgogPC9nPgogPHBhdGggZD0ibTkuNzg5NCA0Ljc2MjQtMC4wNDA4IDAuNDg3ODJhMS40NTUyIDEuNDU1MiAwIDAgMC0wLjQyNTMyIDAuMjQ1OTdsLTAuNDQzMzctMC4yMDg3OS0wLjQ2MyAwLjgwMjA0IDAuNDAyNTcgMC4yNzk1M2ExLjQ1NTIgMS40NTUyIDAgMCAwLTAuMDIyMjU1IDAuMjQ1NDcgMS40NTUyIDEuNDU1MiAwIDAgMCAwLjAyMTE5OSAwLjI0NjQ3bC0wLjQwMTUyIDAuMjc4NTMgMC40NjMgMC44MDIwNCAwLjQ0MjM2LTAuMjA4MjRhMS40NTUyIDEuNDU1MiAwIDAgMCAwLjQyNjI4IDAuMjQ0NDJsMC4wNDA4NSAwLjQ4ODgzaDAuOTI1OTlsMC4wNDA3OS0wLjQ4NzgzYTEuNDU1MiAxLjQ1NTIgMCAwIDAgMC40MjUzMy0wLjI0NTk3bDAuNDQzMzYgMC4yMDg4IDAuNDYzLTAuODAyMDQtMC40MDI1Ny0wLjI3OTUzYTEuNDU1MiAxLjQ1NTIgMCAwIDAgMC4wMjIyNi0wLjI0NTQ3IDEuNDU1MiAxLjQ1NTIgMCAwIDAtMC4wMjEyLTAuMjQ2NDhsMC40MDE1MS0wLjI3ODUzLTAuNDYzLTAuODAyMDQtMC40NDIzNiAwLjIwODI0YTEuNDU1MiAxLjQ1NTIgMCAwIDAtMC40MjYyOC0wLjI0NDQxbC0wLjA0MDg1LTAuNDg4ODNoLTAuOTI1OTl6bTAuNDYzMDEgMS4yMzQ3YTAuNjE3MzQgMC42MTczNCAwIDAgMSAwLjYxNzM0IDAuNjE3MzQgMC42MTczNCAwLjYxNzM0IDAgMCAxLTAuNjE3MzQgMC42MTczNCAwLjYxNzM0IDAuNjE3MzQgMCAwIDEtMC42MTczNC0wLjYxNzM0IDAuNjE3MzQgMC42MTczNCAwIDAgMSAwLjYxNzM0LTAuNjE3MzR6IiBlbmFibGUtYmFja2dyb3VuZD0ibmV3IiBmaWxsPSIjYThhOGE4IiBzdHJva2Utd2lkdGg9Ii40OTk5OSIvPgogPHBhdGggZD0ibTYuMjE3NiA4LjIwMTktMC4wNTgyNzkgMC42OTY4OWEyLjA3ODggMi4wNzg4IDAgMCAwLTAuNjA3NjEgMC4zNTEzOWwtMC42MzMzOC0wLjI5ODI4LTAuNjYxNDQgMS4xNDU4IDAuNTc1MSAwLjM5OTMzYTIuMDc4OCAyLjA3ODggMCAwIDAtMC4wMzE3OTMgMC4zNTA2OCAyLjA3ODggMi4wNzg4IDAgMCAwIDAuMDMwMjg0IDAuMzUyMWwtMC41NzM1OSAwLjM5Nzg5IDAuNjYxNDQgMS4xNDU4IDAuNjMxOTQtMC4yOTc0OWEyLjA3ODggMi4wNzg4IDAgMCAwIDAuNjA4OTcgMC4zNDkxN2wwLjA1ODM1NyAwLjY5ODMzaDEuMzIyOGwwLjA1ODI3MS0wLjY5Njg5YTIuMDc4OCAyLjA3ODggMCAwIDAgMC42MDc2MS0wLjM1MTM5bDAuNjMzMzcgMC4yOTgyOCAwLjY2MTQ0LTEuMTQ1OC0wLjU3NTA5LTAuMzk5MzNhMi4wNzg4IDIuMDc4OCAwIDAgMCAwLjAzMTgtMC4zNTA2NyAyLjA3ODggMi4wNzg4IDAgMCAwLTAuMDMwMjg2LTAuMzUyMTFsMC41NzM1OS0wLjM5NzktMC42NjE0NC0xLjE0NTgtMC42MzE5NCAwLjI5NzQ5YTIuMDc4OCAyLjA3ODggMCAwIDAtMC42MDg5Ny0wLjM0OTE2bC0wLjA1ODM1Ny0wLjY5ODMzaC0xLjMyMjh6bTAuNjYxNDQgMS43NjM4YTAuODgxOTIgMC44ODE5MiAwIDAgMSAwLjg4MTkyIDAuODgxOTIgMC44ODE5MiAwLjg4MTkyIDAgMCAxLTAuODgxOTIgMC44ODE5MiAwLjg4MTkyIDAuODgxOTIgMCAwIDEtMC44ODE5Mi0wLjg4MTkyIDAuODgxOTIgMC44ODE5MiAwIDAgMSAwLjg4MTkyLTAuODgxOTJ6IiBlbmFibGUtYmFja2dyb3VuZD0ibmV3IiBmaWxsPSIjYThhOGE4IiBzdHJva2Utd2lkdGg9Ii43MTQyOCIvPgogPHBhdGggZD0ibTExLjY0MSAyLjkxMDR2MC4xNTQ1MWMwIDAuNzkzOTcgMC41OSAxLjQzMyAxLjMyMjkgMS40MzNoMS44NTJsMS40MmUtNCAtMC4yNjQ2My0xLjg1MjIgNWUtNWMtMC43MzI4OSAxLjk4ZS01IC0xLjMyMjktMC41OTAwMS0xLjMyMjktMS4zMjI5eiIgZmlsbC1ydWxlPSJldmVub2RkIiBvcGFjaXR5PSIuMSIgc3Ryb2tlLXdpZHRoPSIxLjA0MDgiIHN0eWxlPSJwYWludC1vcmRlcjpzdHJva2UgZmlsbCBtYXJrZXJzIi8+Cjwvc3ZnPgo=;fontSize=15;labelPosition=center;verticalLabelPosition=bottom;align=center;verticalAlign=top;" vertex="1" parent="1">
          <mxGeometry x="280" y="290" width="128" height="128" as="geometry" />
        </mxCell>
      </root>
    </mxGraphModel>
  </diagram>
</mxfile>
